<?xml version="1.0" encoding="utf-8"?>
<!-- Generator: Adobe Illustrator 21.0.2, SVG Export Plug-In . SVG Version: 6.00 Build 0)  -->
<svg version="1.1" id="Layer_1" xmlns="http://www.w3.org/2000/svg" xmlns:xlink="http://www.w3.org/1999/xlink" x="0px" y="0px"
	 viewBox="0 0 400 363" style="enable-background:new 0 0 400 363;" xml:space="preserve">
<style type="text/css">
	.st0{fill:#25AD90;}
	.st1{fill:#E5A83C;}
	.st2{fill:#6762DA;}
	.st3{fill:#7042A0;}
	.st4{fill:#1C3867;}
</style>
<g>
	<g>
		<g>
			<rect x="13.7" y="260.7" class="st0" width="52" height="52"/>
		</g>
		<g>
			<circle class="st1" cx="121.5" cy="286.6" r="26.6"/>
		</g>
		<g>
			<rect x="13.4" y="327.8" class="st2" width="310.5" height="31.6"/>
		</g>
		<g>
			<circle class="st1" cx="381.5" cy="344.2" r="15.8"/>
		</g>
		<g>
			
				<rect x="182.3" y="267.9" transform="matrix(0.7071 -0.7071 0.7071 0.7071 -143.7567 225.9686)" class="st0" width="37.2" height="37.2"/>
		</g>
		<g>
			<rect x="339.4" y="327.8" class="st2" width="12.5" height="31.6"/>
		</g>
		<g>
			<circle class="st1" cx="280.5" cy="287" r="26.6"/>
		</g>
		<g>
			<path class="st3" d="M354.8,261.2c-9.3,0-16.8,7.5-16.8,16.8c0,4.5,1.8,8.8,4.9,11.9l23.7,23.8l0.1-0.1l0,0l23.7-23.7l0,0
				c6.6-6.5,6.6-17.2,0-23.7c-6.5-6.6-17.2-6.6-23.7,0l0,0C363.5,262.9,359.3,261.2,354.8,261.2L354.8,261.2z"/>
		</g>
	</g>
	<g>
		<g>
			<path class="st4" d="M157.4,160H34.8c2,8.3,6.8,19.2,13.8,26c8.6,8.3,19.2,12.4,32.5,12.4c18.1,0,30.7-8.3,38.3-23.1l1.4-3.2h33
				l-2.1,7c-5.2,13.8-13.8,25.9-25.5,34.5c-11.7,8.8-26.9,13.2-45.1,13.2c-23.1,0-42.3-7.8-56.9-23.1C9.9,189.1,2.7,170.2,2.7,147.8
				c0-22.6,7-41.7,20.5-56.3c14.4-15.4,33.5-23.2,56.3-23.2c23.1,0,42.5,7.8,56.9,23.3c13.5,14.8,21,33.9,21,56.6V160z"/>
		</g>
		<g>
			<rect x="182" y="3" class="st4" width="34.7" height="224.5"/>
		</g>
		<g>
			<path class="st4" d="M394.3,72.5v152.9h-34.7v-15.3c-10.2,11.9-26,18.1-45.9,18.1c-22.3,0-39.9-8-54-23.4
				c-13.7-15-20-34.3-20-56.6s7.2-41.3,20.7-56.6c14-15.4,31.3-23.4,54.5-23.4c18.9,0,34.5,6.2,44.7,18.2V72.7h34.7V72.5z"/>
		</g>
	</g>
</g>
</svg>
