<svg xmlns="http://www.w3.org/2000/svg" version="1.1" x="0" y="0" viewBox="0 0 347.5 309.5" enable-background="new 0 0 347.5 309.5" xml:space="preserve"><style>.st0{fill:#1C3867;} .st1{fill:#25AD90;} .st2{fill:#E5A83C;} .st3{fill:#6762DA;} .st4{fill:#7042A0;}</style><path class="st0" d="M132 151.7l-1 3.2c-4.6 12.2-12.2 22.7-22.4 30.3-10.2 7.8-23.6 11.6-39.7 11.6-20.3 0-37.2-6.9-50.1-20.3C6.3 163.5 0 147 0 127.2c0-19.9 6.2-36.7 18-49.5 12.7-13.6 29.4-20.4 49.5-20.4 20.3 0 37.4 6.9 50.1 20.4 11.8 13 18.5 29.8 18.5 49.7V138H28.2c1.8 7.2 6 16.9 12.2 22.9 7.6 7.2 16.9 10.9 28.6 10.9 15.9 0 27-7.2 33.7-20.3"/><path class="st0" d="M102.6 151.6l1.2-2.8h29.1l-.9 3M157.6 0h30.5v197.4h-30.5zM344.2 61v134.5h-30.5v-13.4c-9 10.4-22.9 15.9-40.4 15.9-19.6 0-35.1-7-47.4-20.6-12-13.2-17.6-30.1-17.6-49.7s6.3-36.3 18.2-49.7c12.3-13.6 27.5-20.6 47.9-20.6 16.6 0 30.3 5.5 39.3 16V61.2h30.5V61z"/><path class="st1" d="M9.7 222.8h45.4v45.4H9.7z"/><circle class="st2" cx="103.9" cy="245.5" r="23.3"/><path class="st3" d="M9.5 281.4h271.1V309H9.5z"/><circle class="st2" cx="333.7" cy="295.8" r="13.8"/><path class="st1" d="M150.286 245.39l22.91-22.91 22.91 22.91-22.91 22.91z"/><path class="st3" d="M295.5 281.4h10.9v28.1h-10.9z"/><circle class="st2" cx="245.5" cy="245.8" r="23.3"/><path class="st4" d="M310.4 223.3c-8.1 0-14.7 6.5-14.7 14.6 0 3.9 1.5 7.6 4.3 10.4l20.7 20.7.1-.1 20.7-20.7c5.7-5.7 5.7-15 0-20.7-5.7-5.7-15-5.7-20.7 0-2.8-2.7-6.5-4.2-10.4-4.2z"/></svg>